<svg width="256" height="256" viewBox="0 0 256 256" fill="none" xmlns="http://www.w3.org/2000/svg">
  <rect width="256" height="256" rx="56" fill="#0d0f14" stroke="#4f8bf9" stroke-width="4" stroke-opacity="0.3"/>
  <path d="M164 196H92a4 4 0 0 1-4-4v-8a4 4 0 0 1 4-4h72a4 4 0 0 1 4 4v8a4 4 0 0 1-4 4z" fill="url(#grad)"/>
  <path d="M152 172h-48a4 4 0 0 1-4-4v-10.7a24 24 0 0 1 12.3-21l5.4-3.1a28.4 28.4 0 0 0 12.3-24V92c0-11 9-20 20-20h6.8c3.3 0 5.4 3.4 4 6.3L150 99.8c-2.4 5.1-2.4 11 .1 16.1l8.5 17.5a24 24 0 0 1 2.3 10.3V168a4 4 0 0 1-4 4z" fill="url(#grad)"/>
  <path d="M110 133.2a28.4 28.4 0 0 1-12.3 24l-5.4 3.1A24 24 0 0 0 80 181.3V184a4 4 0 0 0 4 4h16v-21.7a4 4 0 0 1 2.1-3.5l14.2-8.2c1.7-1 2.5-3 1.8-4.8l-8.1-16.6z" fill="url(#grad)"/>
  <path d="M141.2 72H116a24 24 0 0 0-24 24v13c0 4.4 3.6 8 8 8h6.8a8 8 0 0 0 7.2-4.6l5.3-11.2a12 12 0 0 1 10.8-6.9h11.1c4.6 0 7.5-5 5.2-9L141.2 72z" fill="url(#grad)"/>
  <circle cx="112" cy="96" r="6" fill="#0d0f14"/>
  <defs>
    <linearGradient id="grad" x1="80" y1="72" x2="164" y2="196" gradientUnits="userSpaceOnUse">
      <stop stop-color="#ffffff"/>
      <stop offset="1" stop-color="#4f8bf9"/>
    </linearGradient>
  </defs>
</svg>
