<svg xmlns="http://www.w3.org/2000/svg" width="512" height="512" fill="none" viewBox="0 0 512 512"><rect width="512" height="512" fill="url(#bg)" rx="120"/><rect width="468" height="468" x="22" y="22" stroke="url(#frame)" stroke-width="12" rx="98"/><path fill="#EFF4FF" fill-opacity=".96" d="M194 394C194 375.2 209.2 360 228 360H311C329.8 360 345 375.2 345 394V408H194V394Z"/><path fill="#EFF4FF" d="M334 333H208V304C208 287.7 214 271.9 224.9 259.6L260.9 218.4C270.9 206.9 276.4 192.1 276.4 176.9V155.3C276.4 144.6 285 136 295.7 136H327.4C341.8 136 350.9 151.2 344.1 163.8L323.8 201.2C317.4 213.1 317.1 227.4 323.1 239.6L347.1 288C350.4 294.8 352 302.2 352 309.7V315C352 324.9 343.9 333 334 333Z"/><path fill="#EFF4FF" d="M226.8 320.2L207.7 343.3C197.7 355.3 192 370.4 192 386V408H148V378.5C148 363 153.6 348 163.8 336.3L203.1 291.2C208.7 284.8 210.1 275.8 206.7 268L186.8 222.3L206.7 167.1C212.7 150.6 228.4 139.6 245.9 139.6H281.3C295.7 139.6 304.8 154.8 298 167.4L283.4 194.2C278.5 203.3 269 209 258.6 209H230.2C221.4 209 214.2 216.2 214.2 225V248.6C214.2 259.8 217 270.8 222.4 280.7L234 301.8C237.7 308.5 234.9 316.9 227.9 319.7L226.8 320.2Z"/><path fill="url(#bubble)" d="M347 112C372.4 112 393 132.6 393 158V208C393 233.4 372.4 254 347 254H333L304 283V254H287C261.6 254 241 233.4 241 208V158C241 132.6 261.6 112 287 112H347Z"/><circle cx="295" cy="183" r="12" fill="#0D1320"/><circle cx="331" cy="183" r="12" fill="#0D1320"/><circle cx="367" cy="183" r="12" fill="#0D1320"/><circle cx="253" cy="188" r="16" fill="#0D1320"/><defs><linearGradient id="bg" x1="80" x2="424" y1="44" y2="468" gradientUnits="userSpaceOnUse"><stop stop-color="#121B2D"/><stop offset=".54" stop-color="#0D1320"/><stop offset="1" stop-color="#090D16"/></linearGradient><linearGradient id="frame" x1="58" x2="452" y1="52" y2="470" gradientUnits="userSpaceOnUse"><stop stop-color="#82B1FF" stop-opacity=".55"/><stop offset="1" stop-color="#3D74E7" stop-opacity=".2"/></linearGradient><linearGradient id="bubble" x1="257" x2="399" y1="120" y2="275" gradientUnits="userSpaceOnUse"><stop stop-color="#7EB2FF"/><stop offset="1" stop-color="#4F8BF9"/></linearGradient></defs></svg>